<mxfile host="Electron" modified="2023-08-27T09:20:55.529Z" agent="Mozilla/5.0 (Windows NT 10.0; Win64; x64) AppleWebKit/537.36 (KHTML, like Gecko) draw.io/21.6.5 Chrome/114.0.5735.243 Electron/25.3.1 Safari/537.36" etag="awIm_cGbJ3iPr9ev0jyV" version="21.6.5" type="device">
  <diagram name="Page-1" id="QOjmHOIrhCVZGC1zoeka">
    <mxGraphModel dx="863" dy="512" grid="1" gridSize="10" guides="1" tooltips="1" connect="1" arrows="1" fold="1" page="1" pageScale="1" pageWidth="3300" pageHeight="4681" math="0" shadow="0">
      <root>
        <mxCell id="0" />
        <mxCell id="1" parent="0" />
        <mxCell id="MLEs6jfL7kOhkFaCkxJn-1" value="" style="rounded=0;whiteSpace=wrap;html=1;" vertex="1" parent="1">
          <mxGeometry x="370" y="220" width="330" height="130" as="geometry" />
        </mxCell>
        <mxCell id="MLEs6jfL7kOhkFaCkxJn-2" value="Input Validation" style="rounded=0;whiteSpace=wrap;html=1;" vertex="1" parent="1">
          <mxGeometry x="380" y="230" width="170" height="20" as="geometry" />
        </mxCell>
        <mxCell id="MLEs6jfL7kOhkFaCkxJn-3" value="Controllers" style="rounded=0;whiteSpace=wrap;html=1;fillColor=#dae8fc;strokeColor=#6c8ebf;" vertex="1" parent="1">
          <mxGeometry x="380" y="270" width="310" height="20" as="geometry" />
        </mxCell>
        <mxCell id="MLEs6jfL7kOhkFaCkxJn-10" style="edgeStyle=orthogonalEdgeStyle;rounded=0;orthogonalLoop=1;jettySize=auto;html=1;exitX=0.25;exitY=1;exitDx=0;exitDy=0;" edge="1" parent="1" source="MLEs6jfL7kOhkFaCkxJn-5" target="MLEs6jfL7kOhkFaCkxJn-9">
          <mxGeometry relative="1" as="geometry" />
        </mxCell>
        <mxCell id="MLEs6jfL7kOhkFaCkxJn-5" value="Services" style="rounded=0;whiteSpace=wrap;html=1;fillColor=#dae8fc;strokeColor=#6c8ebf;" vertex="1" parent="1">
          <mxGeometry x="380" y="310" width="310" height="20" as="geometry" />
        </mxCell>
        <mxCell id="MLEs6jfL7kOhkFaCkxJn-7" value="&lt;h1 style=&quot;font-size: 11px;&quot;&gt;.NET Web API&lt;/h1&gt;" style="text;html=1;strokeColor=none;fillColor=none;spacing=5;spacingTop=-20;whiteSpace=wrap;overflow=hidden;rounded=0;fontSize=11;" vertex="1" parent="1">
          <mxGeometry x="360" y="200" width="140" height="10" as="geometry" />
        </mxCell>
        <mxCell id="MLEs6jfL7kOhkFaCkxJn-9" value="File Storage" style="rounded=0;whiteSpace=wrap;html=1;" vertex="1" parent="1">
          <mxGeometry x="415" y="410" width="120" height="60" as="geometry" />
        </mxCell>
        <mxCell id="MLEs6jfL7kOhkFaCkxJn-8" value="" style="image;html=1;image=img/lib/clip_art/general/Empty_Folder_128x128.png" vertex="1" parent="1">
          <mxGeometry x="395" y="400" width="40" height="40" as="geometry" />
        </mxCell>
        <mxCell id="MLEs6jfL7kOhkFaCkxJn-11" value="" style="html=1;verticalLabelPosition=bottom;align=center;labelBackgroundColor=#ffffff;verticalAlign=top;strokeWidth=2;strokeColor=#0080F0;shadow=0;dashed=0;shape=mxgraph.ios7.icons.user;" vertex="1" parent="1">
          <mxGeometry x="560" y="60" width="30" height="30" as="geometry" />
        </mxCell>
        <mxCell id="MLEs6jfL7kOhkFaCkxJn-13" style="edgeStyle=orthogonalEdgeStyle;rounded=0;orthogonalLoop=1;jettySize=auto;html=1;entryX=0.25;entryY=0;entryDx=0;entryDy=0;" edge="1" parent="1" source="MLEs6jfL7kOhkFaCkxJn-12" target="MLEs6jfL7kOhkFaCkxJn-1">
          <mxGeometry relative="1" as="geometry" />
        </mxCell>
        <mxCell id="MLEs6jfL7kOhkFaCkxJn-12" value="Client" style="rounded=0;whiteSpace=wrap;html=1;" vertex="1" parent="1">
          <mxGeometry x="510" y="100" width="120" height="40" as="geometry" />
        </mxCell>
      </root>
    </mxGraphModel>
  </diagram>
</mxfile>
